<svg xmlns="http://www.w3.org/2000/svg" viewBox="51 -198 250 234"><path fill="#F3C07B" d="M67.625-153.375v126.25q0 9.874 4.875 18.063Q77.375-.876 85.563 4q8.187 4.875 18.187 4.875h144.125q9.875 0 18.063-4.875T279-9.062t4.875-18.063v-126.25q0-9.875-4.875-18.063T265.938-184.5t-18.063-4.875H103.75q-10.001 0-18.187 4.875-8.188 4.875-13.063 13.062-4.875 8.188-4.875 18.063"/><path fill="#FFDEA7" d="M248.375-37.625q0 9.125-5.5 20.438t-15.312 21.75-22.938 17.25-28.25 6.812q-12.75 0-25.562-5.312t-23.5-14.5q-10.689-9.188-17.125-21.126-6.438-11.937-6.438-25.312 0-14.5 6-24.625t16.313-16.375q10.312-6.25 23.312-9.062 13-2.814 27-2.813 12.375 0 25.125 2.625t23.375 8.688 17.063 16.25 6.437 25.312"/><path fill="#CA0B4A" d="M148.625-12.25V8.875q0 11.125 8 19.063t19.125 7.937q11.25 0 19.188-7.937t7.937-19.063V-12.25L175.75-32.5Z"/><path fill="#6D4534" d="M137.25-179.75q2.625-3.75 2.063-7.875-.563-4.125-3.625-7t-7.563-2.875h-36.5q-11.25 0-20.437 5.437T56.5-177.375 51-157v63.5q0 5.5 3.813 8.5 3.812 3 8.687 2.75t8-4.75ZM214-179.75q-2.625-3.75-2.062-7.875.562-4.125 3.625-7t7.562-2.875h36.5q11.25 0 20.438 5.437t14.687 14.688 5.5 20.375v63.5q0 5.5-3.812 8.5-3.813 3-8.688 2.75t-8-4.75Z"/><path fill="#212121" d="M139.75-117.25v9q0 3.75 2.625 6.375t6.375 2.625 6.375-2.625 2.625-6.375v-9q0-3.75-2.625-6.375t-6.375-2.625-6.375 2.625-2.625 6.375M193.875-117.25v9q0 3.75 2.625 6.375t6.375 2.625 6.375-2.625 2.625-6.375v-9q0-3.75-2.625-6.375t-6.375-2.625-6.375 2.625-2.625 6.375M186.125-81.25q2.125.125 4.438 1.813 2.312 1.686 3.125 4.687.811 3-1.563 6.75-2.125 3-6.812 7.563T176-55.875q-4.5 0-9.375-4.562T159.5-68q-3.375-4.375-.812-8.812 2.562-4.438 6.562-4.438ZM180.25-49.625v2.25q.5 10 4.938 16.438t10.5 9.5q6.061 3.062 11.187 3.062 1.875 0 3.188 1.375 1.312 1.375 1.312 3.125 0 1.875-1.312 3.25t-3.188 1.375q-8.125 0-17.062-5.062-8.938-5.064-14.063-15.188-5.25 10.125-14.125 15.188Q152.75-9.25 144.5-9.25q-1.875 0-3.187-1.375Q140-12 140-13.875q0-1.75 1.313-3.125t3.187-1.375q5.25 0 11.25-3.062 6-3.063 10.5-9.5 4.5-6.438 5-16.438-.125-.874-.125-2.25 0-1.75 1.313-3.125t3.187-1.375h.125q1.875 0 3.188 1.375 1.312 1.375 1.312 3.125"/></svg>